<svg xmlns="http://www.w3.org/2000/svg" xmlns:xlink="http://www.w3.org/1999/xlink" viewBox="0 0 171.7 233.48">
<defs>

<style>.cls-1{fill:#fafafa;}.cls-2{fill:#c8c8c8;}.cls-3{fill:url(#linear-gradient);}
#shadow {filter: drop-shadow(rgb(0, 0, 0) 3px 3px 3px);}
</style>

<linearGradient id="linear-gradient" x1="30.57" y1="92.52" x2="141.34" y2="204.07" gradientUnits="userSpaceOnUse">
<stop offset="0" stop-color="#934510"/><stop offset="0.5" stop-color="#d3661c"/>
<stop offset="1" stop-color="#fb7a23"/>
</linearGradient>
</defs>

<title>ITEM_OLD_FLUX_BUILDER</title>

<g id="icon_item" data-name="icon item">
<path class="cls-1" d="M65.7,258.29a9.93,9.93,0,0,1-9.92-9.92V34.73a9.93,9.93,0,0,1,9.92-9.92H168.1V71.43a12.78,12.78,0,0,0,12.76,12.76h46.62V248.37a9.93,9.93,0,0,1-9.92,9.92Z" transform="translate(-55.78 -24.81)"/>
<path class="cls-2" d="M180.86,77.1h41.52a2.84,2.84,0,0,0,2-4.84L180,27.9a2.84,2.84,0,0,0-4.84,2V71.43A5.68,5.68,0,0,0,180.86,77.1Z" transform="translate(-55.78 -24.81)"/>
<path d="M80.89,58.11a3.41,3.41,0,1,1,0-6.81H143a3.41,3.41,0,0,1,0,6.81Z" transform="translate(-55.78 -24.81)"/>
<path d="M80.89,93.37a3.41,3.41,0,1,1,0-6.81H143a3.41,3.41,0,0,1,0,6.81Z" transform="translate(-55.78 -24.81)"/>
</g>

<g id="old_flux_builder" data-name="old flux builder">
<rect id="shadow" class="cls-3" x="22.07" y="84.41" width="127.56" height="127.56" rx="28.35" ry="28.35"/>
<path id="shadow" class="cls-1" d="M181.69,196.28l-19.14-19.14a12.13,12.13,0,0,0-14-2.27l-17.43-17.43V147.29l-20.92-15.7L99.78,142.06,115.47,163h10.15l17.43,17.43a12.15,12.15,0,0,0,2.27,14l19.14,19.14a6.08,6.08,0,0,0,8.62,0l8.61-8.61A6.11,6.11,0,0,0,181.69,196.28ZM154,168.38a17.16,17.16,0,0,1,12.24,5.06l3.18,3.18a23.21,23.21,0,0,0,7.16-4.83,23.51,23.51,0,0,0,6.19-22.34,2,2,0,0,0-3.28-.9l-12.17,12.16-11.1-1.85-1.84-11.1,12.16-12.16a2,2,0,0,0-.93-3.3,23.52,23.52,0,0,0-22.33,6.19,23.2,23.2,0,0,0-6.74,16.94L150,168.85A17.9,17.9,0,0,1,154,168.38Zm-17,13.4-9.27-9.27-24.92,24.93a10.47,10.47,0,1,0,14.8,14.8L137.83,192A17.5,17.5,0,0,1,137,181.78Zm-26.78,27a3.92,3.92,0,1,1,3.92-3.92A3.93,3.93,0,0,1,110.24,208.75Z" transform="translate(-55.78 -24.81)"/>
</g>
</svg>